<?xml version="1.0" encoding="UTF-8" standalone="no"?>
<!-- Created with Inkscape (http://www.inkscape.org/) -->

<svg
   xmlns:dc="http://purl.org/dc/elements/1.1/"
   xmlns:cc="http://creativecommons.org/ns#"
   xmlns:rdf="http://www.w3.org/1999/02/22-rdf-syntax-ns#"
   xmlns:svg="http://www.w3.org/2000/svg"
   xmlns="http://www.w3.org/2000/svg"
   xmlns:sodipodi="http://sodipodi.sourceforge.net/DTD/sodipodi-0.dtd"
   xmlns:inkscape="http://www.inkscape.org/namespaces/inkscape"
   width="1308.5714"
   height="1005.7241"
   id="svg2"
   version="1.1"
   inkscape:version="0.47 r22583"
   sodipodi:docname="fit.svg">
  <defs
     id="defs4">
    <inkscape:perspective
       sodipodi:type="inkscape:persp3d"
       inkscape:vp_x="0 : 526.18109 : 1"
       inkscape:vp_y="0 : 1000 : 0"
       inkscape:vp_z="744.09448 : 526.18109 : 1"
       inkscape:persp3d-origin="372.04724 : 350.78739 : 1"
       id="perspective10" />
  </defs>
  <sodipodi:namedview
     id="base"
     pagecolor="#ffffff"
     bordercolor="#666666"
     borderopacity="1.0"
     inkscape:pageopacity="0.0"
     inkscape:pageshadow="2"
     inkscape:zoom="0.175"
     inkscape:cx="-862.53449"
     inkscape:cy="252.38092"
     inkscape:document-units="px"
     inkscape:current-layer="layer1"
     showgrid="false"
     inkscape:window-width="1276"
     inkscape:window-height="756"
     inkscape:window-x="4"
     inkscape:window-y="0"
     inkscape:window-maximized="0" />
  <metadata
     id="metadata7">
    <rdf:RDF>
      <cc:Work
         rdf:about="">
        <dc:format>image/svg+xml</dc:format>
        <dc:type
           rdf:resource="http://purl.org/dc/dcmitype/StillImage" />
        <dc:title></dc:title>
      </cc:Work>
    </rdf:RDF>
  </metadata>
  <g
     inkscape:label="Layer 1"
     inkscape:groupmode="layer"
     id="layer1"
     transform="translate(28.571429,265.58713)">
    <g
       style="fill:none;stroke:#ffffff;stroke-width:60;stroke-miterlimit:4;stroke-opacity:1;stroke-dasharray:none"
       id="g3700"
       transform="translate(0,74.285715)">
      <path
         style="fill:none;stroke:#ffffff;stroke-width:60;stroke-linecap:butt;stroke-linejoin:miter;stroke-miterlimit:4;stroke-opacity:1;stroke-dasharray:none"
         d="m 31.428571,529.50504 c 182.857139,0 302.857139,-600 599.999999,-600"
         id="path3702"
         sodipodi:nodetypes="cs" />
      <path
         sodipodi:nodetypes="cs"
         id="path3704"
         d="m 31.428571,529.50504 c 182.857139,0 302.857139,-600 599.999999,-600"
         style="fill:none;stroke:#ffffff;stroke-width:60;stroke-linecap:butt;stroke-linejoin:miter;stroke-miterlimit:4;stroke-opacity:1;stroke-dasharray:none" />
      <path
         style="fill:none;stroke:#ffffff;stroke-width:60;stroke-linecap:butt;stroke-linejoin:miter;stroke-miterlimit:4;stroke-opacity:1;stroke-dasharray:none"
         d="m 1220,529.50504 c -182.8571,0 -302.85714,-600 -600,-600"
         id="path3706"
         sodipodi:nodetypes="cs" />
    </g>
    <g
       id="g2822"
       style="fill:none;stroke:#4772ff;stroke-width:120;stroke-miterlimit:4;stroke-opacity:1;stroke-dasharray:none">
      <path
         sodipodi:nodetypes="cs"
         id="path2816"
         d="m 31.428571,529.50504 c 182.857139,0 302.857139,-600 599.999999,-600"
         style="fill:none;stroke:#4772ff;stroke-width:120;stroke-linecap:butt;stroke-linejoin:miter;stroke-miterlimit:4;stroke-opacity:1;stroke-dasharray:none" />
      <path
         style="fill:none;stroke:#4772ff;stroke-width:120;stroke-linecap:butt;stroke-linejoin:miter;stroke-miterlimit:4;stroke-opacity:1;stroke-dasharray:none"
         d="m 31.428571,529.50504 c 182.857139,0 302.857139,-600 599.999999,-600"
         id="path2818"
         sodipodi:nodetypes="cs" />
      <path
         sodipodi:nodetypes="cs"
         id="path2820"
         d="m 1220,529.50504 c -182.8571,0 -302.85714,-600 -600,-600"
         style="fill:none;stroke:#4772ff;stroke-width:120;stroke-linecap:butt;stroke-linejoin:miter;stroke-miterlimit:4;stroke-opacity:1;stroke-dasharray:none" />
    </g>
    <path
       sodipodi:type="arc"
       style="fill:#4772ff;fill-opacity:1;stroke:#ffffff;stroke-width:5.35519123;stroke-miterlimit:4;stroke-opacity:1;stroke-dasharray:none"
       id="path3599"
       sodipodi:cx="95.714287"
       sodipodi:cy="339.50504"
       sodipodi:rx="30"
       sodipodi:ry="30"
       d="m 125.71429,339.50504 c 0,16.56854 -13.43146,30 -30.000003,30 -16.568543,0 -30,-13.43146 -30,-30 0,-16.56855 13.431457,-30 30,-30 16.568543,0 30.000003,13.43145 30.000003,30 z"
       transform="matrix(3.7346939,0,0,3.7346939,-231.74928,-944.1566)" />
    <path
       transform="matrix(3.7346939,0,0,3.7346939,108.25072,-975.58524)"
       d="m 125.71429,339.50504 c 0,16.56854 -13.43146,30 -30.000003,30 -16.568543,0 -30,-13.43146 -30,-30 0,-16.56855 13.431457,-30 30,-30 16.568543,0 30.000003,13.43145 30.000003,30 z"
       sodipodi:ry="30"
       sodipodi:rx="30"
       sodipodi:cy="339.50504"
       sodipodi:cx="95.714287"
       id="path3760"
       style="fill:#4772ff;fill-opacity:1;stroke:#ffffff;stroke-width:5.35519123;stroke-miterlimit:4;stroke-opacity:1;stroke-dasharray:none"
       sodipodi:type="arc" />
    <path
       sodipodi:type="arc"
       style="fill:#4772ff;fill-opacity:1;stroke:#ffffff;stroke-width:5.35519123;stroke-miterlimit:4;stroke-opacity:1;stroke-dasharray:none"
       id="path3762"
       sodipodi:cx="95.714287"
       sodipodi:cy="339.50504"
       sodipodi:rx="30"
       sodipodi:ry="30"
       d="m 125.71429,339.50504 c 0,16.56854 -13.43146,30 -30.000003,30 -16.568543,0 -30,-13.43146 -30,-30 0,-16.56855 13.431457,-30 30,-30 16.568543,0 30.000003,13.43145 30.000003,30 z"
       transform="matrix(3.7346939,0,0,3.7346939,59.679296,-1349.8709)" />
    <path
       transform="matrix(3.7346939,0,0,3.7346939,596.82215,-864.15665)"
       d="m 125.71429,339.50504 c 0,16.56854 -13.43146,30 -30.000003,30 -16.568543,0 -30,-13.43146 -30,-30 0,-16.56855 13.431457,-30 30,-30 16.568543,0 30.000003,13.43145 30.000003,30 z"
       sodipodi:ry="30"
       sodipodi:rx="30"
       sodipodi:cy="339.50504"
       sodipodi:cx="95.714287"
       id="path3764"
       style="fill:#4772ff;fill-opacity:1;stroke:#ffffff;stroke-width:5.35519123;stroke-miterlimit:4;stroke-opacity:1;stroke-dasharray:none"
       sodipodi:type="arc" />
    <path
       sodipodi:type="arc"
       style="fill:#4772ff;fill-opacity:1;stroke:#ffffff;stroke-width:5.35519123;stroke-miterlimit:4;stroke-opacity:1;stroke-dasharray:none"
       id="path3766"
       sodipodi:cx="95.714287"
       sodipodi:cy="339.50504"
       sodipodi:rx="30"
       sodipodi:ry="30"
       d="m 125.71429,339.50504 c 0,16.56854 -13.43146,30 -30.000003,30 -16.568543,0 -30,-13.43146 -30,-30 0,-16.56855 13.431457,-30 30,-30 16.568543,0 30.000003,13.43145 30.000003,30 z"
       transform="matrix(3.7346939,0,0,3.7346939,722.53644,-1229.8709)" />
    <path
       transform="matrix(3.7346939,0,0,3.7346939,379.67929,-1129.871)"
       d="m 125.71429,339.50504 c 0,16.56854 -13.43146,30 -30.000003,30 -16.568543,0 -30,-13.43146 -30,-30 0,-16.56855 13.431457,-30 30,-30 16.568543,0 30.000003,13.43145 30.000003,30 z"
       sodipodi:ry="30"
       sodipodi:rx="30"
       sodipodi:cy="339.50504"
       sodipodi:cx="95.714287"
       id="path3768"
       style="fill:#4772ff;fill-opacity:1;stroke:#ffffff;stroke-width:5.35519123;stroke-miterlimit:4;stroke-opacity:1;stroke-dasharray:none"
       sodipodi:type="arc" />
    <g
       id="g3626"
       transform="matrix(0.66355588,-0.74812672,0.74812672,0.66355588,709.87416,-434.33142)">
      <path
         sodipodi:type="arc"
         style="opacity:0.75;fill:none;stroke:#ffffff;stroke-width:120;stroke-miterlimit:4;stroke-opacity:1;stroke-dasharray:none;stroke-dashoffset:0"
         id="path3622"
         sodipodi:cx="185.71428"
         sodipodi:cy="835.71429"
         sodipodi:rx="442.85715"
         sodipodi:ry="442.85715"
         d="m 628.57143,835.71429 c 0,244.58321 -198.2739,442.85711 -442.85715,442.85711 -244.58325,0 -442.85715,-198.2739 -442.85715,-442.85711 0,-244.58324 198.2739,-442.85714 442.85715,-442.85714 244.58325,0 442.85715,198.2739 442.85715,442.85714 z"
         transform="translate(-746.27102,-455.58222)" />
      <path
         sodipodi:end="3.1415927"
         sodipodi:start="0"
         transform="translate(-746.27102,-455.58222)"
         d="m 628.57143,835.71429 c 0,244.58321 -198.2739,442.85711 -442.85715,442.85711 -244.58325,0 -442.85715,-198.2739 -442.85715,-442.85711 0,0 0,-10e-6 0,-2e-5 l 442.85715,2e-5 z"
         sodipodi:ry="442.85715"
         sodipodi:rx="442.85715"
         sodipodi:cy="835.71429"
         sodipodi:cx="185.71428"
         id="path2836"
         style="opacity:0.75;fill:none;stroke:#ff4b4b;stroke-width:75;stroke-miterlimit:4;stroke-opacity:1;stroke-dasharray:none;stroke-dashoffset:0"
         sodipodi:type="arc" />
      <path
         sodipodi:open="true"
         sodipodi:type="arc"
         style="opacity:0.75;fill:none;stroke:#ff4b4b;stroke-width:75;stroke-miterlimit:4;stroke-opacity:1;stroke-dasharray:none;stroke-dashoffset:0"
         id="path3624"
         sodipodi:cx="185.71428"
         sodipodi:cy="835.71429"
         sodipodi:rx="442.85715"
         sodipodi:ry="442.85715"
         d="m -255.99332,803.8262 c 17.61131,-243.94837 229.647326,-427.43081 473.5957,-409.8195 219.46853,15.84404 394.01741,190.42206 409.82481,409.89324"
         transform="translate(-746.27102,-455.58222)"
         sodipodi:start="3.2136604"
         sodipodi:end="6.2112845" />
    </g>
  </g>
</svg>
