<?xml version="1.0" encoding="UTF-8" standalone="no"?>
<!-- Created with Inkscape (http://www.inkscape.org/) -->

<svg
   xmlns:dc="http://purl.org/dc/elements/1.1/"
   xmlns:cc="http://creativecommons.org/ns#"
   xmlns:rdf="http://www.w3.org/1999/02/22-rdf-syntax-ns#"
   xmlns:svg="http://www.w3.org/2000/svg"
   xmlns="http://www.w3.org/2000/svg"
   xmlns:sodipodi="http://sodipodi.sourceforge.net/DTD/sodipodi-0.dtd"
   xmlns:inkscape="http://www.inkscape.org/namespaces/inkscape"
   width="645.57434"
   height="589.9928"
   id="svg2"
   version="1.1"
   inkscape:version="0.47 r22583"
   sodipodi:docname="New document 1">
  <defs
     id="defs4">
    <inkscape:perspective
       sodipodi:type="inkscape:persp3d"
       inkscape:vp_x="0 : 526.18109 : 1"
       inkscape:vp_y="0 : 1000 : 0"
       inkscape:vp_z="744.09448 : 526.18109 : 1"
       inkscape:persp3d-origin="372.04724 : 350.78739 : 1"
       id="perspective10" />
  </defs>
  <sodipodi:namedview
     id="base"
     pagecolor="#ffffff"
     bordercolor="#666666"
     borderopacity="1.0"
     inkscape:pageopacity="0.0"
     inkscape:pageshadow="2"
     inkscape:zoom="0.175"
     inkscape:cx="364.92012"
     inkscape:cy="176.61874"
     inkscape:document-units="px"
     inkscape:current-layer="layer1"
     showgrid="false"
     inkscape:window-width="1205"
     inkscape:window-height="682"
     inkscape:window-x="4"
     inkscape:window-y="0"
     inkscape:window-maximized="0" />
  <metadata
     id="metadata7">
    <rdf:RDF>
      <cc:Work
         rdf:about="">
        <dc:format>image/svg+xml</dc:format>
        <dc:type
           rdf:resource="http://purl.org/dc/dcmitype/StillImage" />
        <dc:title></dc:title>
      </cc:Work>
    </rdf:RDF>
  </metadata>
  <g
     inkscape:label="Layer 1"
     inkscape:groupmode="layer"
     id="layer1"
     transform="translate(-56.568543,-108.8797)">
    <g
       id="g3602">
      <path
         transform="matrix(0.37433156,0,0,0.37433156,35.393152,68.122592)"
         d="m 434.3656,297.77823 c 0,104.32578 -84.57275,188.89853 -188.89853,188.89853 -104.32578,0 -188.898528,-84.57275 -188.898528,-188.89853 0,-104.32578 84.572748,-188.89853 188.898528,-188.89853 104.32578,0 188.89853,84.57275 188.89853,188.89853 z"
         sodipodi:ry="188.89853"
         sodipodi:rx="188.89853"
         sodipodi:cy="297.77823"
         sodipodi:cx="245.46707"
         id="path2818"
         style="fill:#000000;fill-opacity:1;stroke:none"
         sodipodi:type="arc" />
      <path
         id="path3596"
         d="m 315.71429,179.59038 361.42857,0"
         style="fill:none;stroke:#000000;stroke-width:50;stroke-linecap:butt;stroke-linejoin:miter;stroke-miterlimit:4;stroke-opacity:1;stroke-dasharray:none" />
    </g>
    <g
       id="g3606"
       transform="translate(0,448.57143)">
      <path
         sodipodi:type="arc"
         style="fill:#000000;fill-opacity:1;stroke:none"
         id="path3608"
         sodipodi:cx="245.46707"
         sodipodi:cy="297.77823"
         sodipodi:rx="188.89853"
         sodipodi:ry="188.89853"
         d="m 434.3656,297.77823 c 0,104.32578 -84.57275,188.89853 -188.89853,188.89853 -104.32578,0 -188.898528,-84.57275 -188.898528,-188.89853 0,-104.32578 84.572748,-188.89853 188.898528,-188.89853 104.32578,0 188.89853,84.57275 188.89853,188.89853 z"
         transform="matrix(0.37433156,0,0,0.37433156,35.393152,68.122592)" />
      <path
         style="fill:none;stroke:#000000;stroke-width:50;stroke-linecap:butt;stroke-linejoin:miter;stroke-miterlimit:4;stroke-opacity:1;stroke-dasharray:none"
         d="m 315.71429,179.59038 361.42857,0"
         id="path3610" />
    </g>
    <g
       transform="translate(0,224.28572)"
       id="g3612">
      <path
         transform="matrix(0.37433156,0,0,0.37433156,35.393152,68.122592)"
         d="m 434.3656,297.77823 c 0,104.32578 -84.57275,188.89853 -188.89853,188.89853 -104.32578,0 -188.898528,-84.57275 -188.898528,-188.89853 0,-104.32578 84.572748,-188.89853 188.898528,-188.89853 104.32578,0 188.89853,84.57275 188.89853,188.89853 z"
         sodipodi:ry="188.89853"
         sodipodi:rx="188.89853"
         sodipodi:cy="297.77823"
         sodipodi:cx="245.46707"
         id="path3614"
         style="fill:#000000;fill-opacity:1;stroke:none"
         sodipodi:type="arc" />
      <path
         id="path3616"
         d="m 315.71429,179.59038 361.42857,0"
         style="fill:none;stroke:#000000;stroke-width:50;stroke-linecap:butt;stroke-linejoin:miter;stroke-miterlimit:4;stroke-opacity:1;stroke-dasharray:none" />
    </g>
  </g>
</svg>
