<?xml version="1.0" encoding="UTF-8" standalone="no"?>
<!-- Created with Inkscape (http://www.inkscape.org/) -->

<svg
   xmlns:dc="http://purl.org/dc/elements/1.1/"
   xmlns:cc="http://creativecommons.org/ns#"
   xmlns:rdf="http://www.w3.org/1999/02/22-rdf-syntax-ns#"
   xmlns:svg="http://www.w3.org/2000/svg"
   xmlns="http://www.w3.org/2000/svg"
   xmlns:sodipodi="http://sodipodi.sourceforge.net/DTD/sodipodi-0.dtd"
   xmlns:inkscape="http://www.inkscape.org/namespaces/inkscape"
   width="660"
   height="425.71426"
   id="svg3648"
   version="1.1"
   inkscape:version="0.47 r22583"
   sodipodi:docname="New document 5">
  <defs
     id="defs3650">
    <inkscape:perspective
       sodipodi:type="inkscape:persp3d"
       inkscape:vp_x="0 : 526.18109 : 1"
       inkscape:vp_y="0 : 1000 : 0"
       inkscape:vp_z="744.09448 : 526.18109 : 1"
       inkscape:persp3d-origin="372.04724 : 350.78739 : 1"
       id="perspective3656" />
  </defs>
  <sodipodi:namedview
     id="base"
     pagecolor="#ffffff"
     bordercolor="#666666"
     borderopacity="1.0"
     inkscape:pageopacity="0.0"
     inkscape:pageshadow="2"
     inkscape:zoom="0.49497475"
     inkscape:cx="131.54091"
     inkscape:cy="158.16531"
     inkscape:document-units="px"
     inkscape:current-layer="layer1"
     showgrid="false"
     showguides="true"
     inkscape:guide-bbox="true"
     inkscape:window-width="1276"
     inkscape:window-height="756"
     inkscape:window-x="4"
     inkscape:window-y="0"
     inkscape:window-maximized="0" />
  <metadata
     id="metadata3653">
    <rdf:RDF>
      <cc:Work
         rdf:about="">
        <dc:format>image/svg+xml</dc:format>
        <dc:type
           rdf:resource="http://purl.org/dc/dcmitype/StillImage" />
        <dc:title></dc:title>
      </cc:Work>
    </rdf:RDF>
  </metadata>
  <g
     inkscape:label="Layer 1"
     inkscape:groupmode="layer"
     id="layer1"
     transform="translate(58.571423,-305.21933)">
    <path
       style="fill:#ffdf91;fill-opacity:1;stroke:none"
       d="M 49.427917,719.69685 C 63.29043,686.6853 69.629574,647.48805 80.097755,530.054 86.890834,453.84795 92.20425,420.67566 100.29447,403.9635 c 5.97186,-12.33622 14.17781,-12.70319 19.89659,-0.88976 6.42909,13.28073 9.96549,39.16696 15.66622,114.67593 3.42878,45.41588 6.01146,68.91211 9.99741,90.95261 11.66289,64.49057 31.01047,88.9548 66.06747,83.53959 16.15489,-2.49543 29.24245,-9.73503 43.90437,-24.28643 14.47983,-14.37069 21.2734,-24.11346 42.86468,-61.47287 19.38051,-33.53417 22.54555,-38.27856 32.77432,-49.1287 20.74633,-22.0066 41.61323,-19.94973 61.92068,6.1036 8.62112,11.06041 16.87894,25.03981 33.93755,57.45183 31.22753,59.3335 47.26725,82.03517 67.59423,95.66888 l 8.37709,5.61867 -227.4585,0 c -216.074681,0 -227.405944,-0.12511 -226.408663,-2.5 z"
       id="path4180" />
    <rect
       style="fill:none;stroke:#000000;stroke-width:20;stroke-linecap:round;stroke-linejoin:round;stroke-miterlimit:4;stroke-opacity:1;stroke-dasharray:none;stroke-dashoffset:0"
       id="rect4170"
       width="640"
       height="405.71426"
       x="-48.571423"
       y="315.21933"
       rx="73.343185"
       ry="82.862244" />
    <path
       style="fill:none;stroke:#000000;stroke-width:20;stroke-linecap:butt;stroke-linejoin:miter;stroke-miterlimit:4;stroke-opacity:1;stroke-dasharray:none"
       d="m 25.152288,720.61373 c 63.496396,0 41.933651,-327.9832 85.111512,-327.9832 43.17787,0 2.76595,299.42408 90.65503,299.42408 87.45845,0 101.01526,-151.52287 159.60411,-151.52287 58.58884,0 85.42107,179.84025 169.99277,179.84025"
       id="path4174"
       sodipodi:nodetypes="cssss" />
  </g>
</svg>
